<?xml version="1.0" encoding="utf-8"?>
<!-- Generator: Adobe Illustrator 22.1.0, SVG Export Plug-In . SVG Version: 6.00 Build 0)  -->
<svg version="1.1" xmlns="http://www.w3.org/2000/svg" xmlns:xlink="http://www.w3.org/1999/xlink" x="0px" y="0px"
	 viewBox="0 0 64 64" style="enable-background:new 0 0 64 64;" xml:space="preserve">
<style type="text/css">
	.st0{fill:#15375A;}
	.st1{fill:#D99A11;}
</style>
<g id="fondo">
	<rect class="st0" width="64" height="64"/>
</g>
<g id="Capa_2">
	<g>
		<path class="st1" d="M21.8,20.5c-5.9,0-10.7,4.8-10.7,10.7s4.8,10.7,10.7,10.7s10.7-4.8,10.7-10.7S27.7,20.5,21.8,20.5z
			 M16.2,38.2c0.3-2.8,2.7-5,5.6-5c2.9,0,5.3,2.2,5.6,5c-1.5,1.3-3.5,2-5.7,2C19.7,40.2,17.7,39.4,16.2,38.2z M18.7,28.9
			c0-1.7,1.4-3.1,3.1-3.1c1.7,0,3.1,1.4,3.1,3.1c0,1.7-1.4,3.1-3.1,3.1C20.1,32,18.7,30.7,18.7,28.9z M28.4,37.2
			c-0.5-2.2-2.1-4-4.2-4.7c1.1-0.8,1.9-2.1,1.9-3.5c0-2.3-1.9-4.2-4.2-4.2s-4.2,1.9-4.2,4.2c0,1.5,0.8,2.8,1.9,3.5
			c-2.1,0.8-3.7,2.6-4.2,4.8c-1.5-1.6-2.4-3.7-2.4-6c0-4.9,4-8.9,8.9-8.9s8.9,4,8.9,8.9C30.7,33.5,29.8,35.6,28.4,37.2z"/>
		<path class="st1" d="M44.4,12.6c-4.7,0-8.5,3.8-8.5,8.5s3.8,8.5,8.5,8.5s8.5-3.8,8.5-8.5S49.1,12.6,44.4,12.6z M40,26.5
			c0.3-2.2,2.1-4,4.4-4c2.3,0,4.2,1.7,4.4,3.9c-1.2,1-2.8,1.6-4.5,1.6C42.8,28.1,41.3,27.5,40,26.5z M42,19.2c0-1.4,1.1-2.5,2.5-2.5
			c1.4,0,2.5,1.1,2.5,2.5s-1.1,2.5-2.5,2.5C43.1,21.7,42,20.6,42,19.2z M49.7,25.7C49.2,24,48,22.6,46.3,22c0.9-0.6,1.5-1.6,1.5-2.8
			c0-1.8-1.5-3.4-3.4-3.4c-1.8,0-3.4,1.5-3.4,3.4c0,1.2,0.6,2.2,1.5,2.8c-1.7,0.6-2.9,2-3.4,3.8c-1.2-1.3-1.9-2.9-1.9-4.8
			c0-3.9,3.2-7.1,7.1-7.1s7.1,3.2,7.1,7.1C51.5,22.8,50.8,24.5,49.7,25.7z"/>
		
			<rect x="29.8" y="23.9" transform="matrix(0.9006 -0.4347 0.4347 0.9006 -7.3789 17.0627)" class="st1" width="7.6" height="1.6"/>
		<rect x="29.2" y="38.5" transform="matrix(0.866 0.5 -0.5 0.866 24.0475 -11.2105)" class="st1" width="7.6" height="1.6"/>
		<path class="st1" d="M44,34.5c-4.7,0-8.5,3.8-8.5,8.5s3.8,8.5,8.5,8.5s8.5-3.8,8.5-8.5S48.7,34.5,44,34.5z M39.6,48.5
			c0.3-2.2,2.1-4,4.4-4c2.3,0,4.2,1.7,4.4,3.9c-1.2,1-2.8,1.6-4.5,1.6C42.3,50,40.8,49.4,39.6,48.5z M41.6,41.2
			c0-1.4,1.1-2.5,2.5-2.5c1.4,0,2.5,1.1,2.5,2.5c0,1.4-1.1,2.5-2.5,2.5C42.7,43.6,41.6,42.5,41.6,41.2z M49.2,47.7
			c-0.4-1.7-1.7-3.1-3.3-3.7c0.9-0.6,1.5-1.6,1.5-2.8c0-1.8-1.5-3.4-3.4-3.4s-3.4,1.5-3.4,3.4c0,1.2,0.6,2.2,1.5,2.8
			c-1.7,0.6-2.9,2-3.4,3.8c-1.2-1.3-1.9-2.9-1.9-4.8c0-3.9,3.2-7.1,7.1-7.1S51,39.1,51,43C51,44.8,50.3,46.4,49.2,47.7z"/>
	</g>
</g>
</svg>
