<?xml version="1.0" encoding="utf-8"?>
<!-- Generator: Adobe Illustrator 22.1.0, SVG Export Plug-In . SVG Version: 6.00 Build 0)  -->
<svg version="1.1" xmlns="http://www.w3.org/2000/svg" xmlns:xlink="http://www.w3.org/1999/xlink" x="0px" y="0px"
	 viewBox="0 0 64 64" style="enable-background:new 0 0 64 64;" xml:space="preserve">
<style type="text/css">
	.st0{fill:#15375A;}
	.st1{fill:#D99A11;}
</style>
<g id="fondo">
	<rect class="st0" width="64" height="64"/>
</g>
<g id="Capa_2">
	<path class="st1" d="M9.2,25.2v2.8c4,0,3.9,3.1,3.9,3.1v3.7h-0.9v4.1h5.2v-4.1h-0.8V31c0,0-0.1-3.1,3.9-3.1c4,0,3.9,3.1,3.9,3.1h0
		v3.7h-0.9v4.1h5.2v-4.1h-0.8V31c0,0-0.1-3.1,3.9-3.1c4,0,3.9,3.1,3.9,3.1v3.7H35v4.1h5.3v-4.1h-0.8V31c0,0-0.1-3.1,3.9-3.1
		c4,0,3.9,3.1,3.9,3.1h0v3.7h-0.9v4.1h5.3v-4.1h-0.8V31c0,0-0.1-3.1,3.9-3.1v-2.8H9.2z"/>
</g>
</svg>
