<?xml version="1.0" encoding="utf-8"?>
<!-- Generator: Adobe Illustrator 22.1.0, SVG Export Plug-In . SVG Version: 6.00 Build 0)  -->
<svg version="1.1" xmlns="http://www.w3.org/2000/svg" xmlns:xlink="http://www.w3.org/1999/xlink" x="0px" y="0px"
	 viewBox="0 0 64 64" style="enable-background:new 0 0 64 64;" xml:space="preserve">
<style type="text/css">
	.st0{fill:#15375A;}
	.st1{fill:#D99A11;}
</style>
<g id="fondo">
	<rect class="st0" width="64" height="64"/>
</g>
<g id="Capa_2">
	<g>
		<path class="st1" d="M23.9,48.7c0-1.1,0-2.2,0-3.4c1.6,0,3.1,0,4.7,0c0-1.6,0-3.1,0-4.6c-3.2-0.5-5.9-2-7.9-4.6
			c-1.4-1.8-2.3-3.8-2.5-6.1c-0.6-4.9,1.8-9.4,5.7-11.8c4-2.5,9.5-2.5,13.8,0.7c1.7-1.8,3.5-3.5,5.3-5.3c-1.4,0-2.7,0-4,0
			c0-1,0-2,0-3c3.1,0,6.3,0,9.4,0c0,3.1,0,6.2,0,9.4c-1,0-2,0-3,0c0-1.3,0-2.6,0-3.9c-1.7,1.7-3.5,3.5-5.2,5.2
			c2.6,3.7,3.1,7.7,1.5,12c-1.9,4.2-5.1,6.6-9.6,7.5c0,1.5,0,3,0,4.6c1.6,0,3.1,0,4.7,0c0,1.1,0,2.3,0,3.4c-1.6,0-3.1,0-4.7,0
			c0,1.6,0,3.1,0,4.7c-1.1,0-2.3,0-3.4,0c0-1.6,0-3.1,0-4.7C27,48.7,25.4,48.7,23.9,48.7z M21.4,28.6c0,4.9,3.9,8.8,8.8,8.8
			c4.9,0,8.8-4,8.8-8.8c0-4.9-3.9-8.8-8.8-8.8C25.4,19.8,21.4,23.7,21.4,28.6z"/>
		<path class="st1" d="M24.2,32.2c0-0.9,0-1.7,0-2.6c4,0,8,0,12,0c0,0.9,0,1.7,0,2.6C32.3,32.2,28.3,32.2,24.2,32.2z"/>
		<path class="st1" d="M36.3,27.7c-4,0-8,0-12,0c0-0.9,0-1.7,0-2.6c4,0,8,0,12,0C36.3,25.9,36.3,26.8,36.3,27.7z"/>
	</g>
</g>
</svg>
